# xmcd CD database file
#
# Track frame offsets:
#	150
#	15227
#	27790
#	41445
#	56222
#	70110
#	82457
#	97290
#	112180
#	126912
#	139102
#	153210
#	169415
#	183900
#	198732
#	213825
#	226242
#	237772
#
# Disc length: 3345 seconds
#
# Revision: 4
# Processed by: cddbd v1.5.2PL0 Copyright (c) Steve Scherf et al.
# Submitted via: CDex 1.70beta2
#
DISCID=fe0d0f12
DTITLE=Frank Sinatra - The Essential Frank Sinatra - The Columbia Years [CD2)
DYEAR=1997
DGENRE=Vocal
TTITLE0=There's No Business Like Show Business
TTITLE1=Falling In Love With Love
TTITLE2=You Go To My Head
TTITLE3=Everybody Loves Somebody
TTITLE4=I Believe
TTITLE5=Why Was I Born
TTITLE6=I've Got A Crush On You
TTITLE7=Body And Soul
TTITLE8=That Old Feeling
TTITLE9=Almost Like Being In Love
TTITLE10=September Song
TTITLE11=It Never Entered My Mind
TTITLE12=I Only Have Eyes For You
TTITLE13=The Song Is You
TTITLE14=Don't Cry Joe (Let Her Go)
TTITLE15=It All Depends On You
TTITLE16=The Continental
TTITLE17=I'm A Fool To Want You
EXTD=
EXTT0=
EXTT1=
EXTT2=
EXTT3=
EXTT4=
EXTT5=
EXTT6=
EXTT7=
EXTT8=
EXTT9=
EXTT10=
EXTT11=
EXTT12=
EXTT13=
EXTT14=
EXTT15=
EXTT16=
EXTT17=
PLAYORDER=
